# xmcd
# 
# Track frame offsets:
#     151
#     21981
#     41574
#     55852
#     73578
#     93840
#     117457
# 
# Disc length: 2374
# 
# Revision: 0
# Processed by: cddbd v1.5.2PL0 Copyright (c) Steve Scherf et al.
# Submitted via: BonkEnc v1.0.8
# 
DISCID=5a094407
DTITLE=Shinki Chen - Shinki Chen
DYEAR=1971
DGENRE=Psychedelic Rock
TTITLE0=The Dark Sea Dream
TTITLE1=Requiem Of Confusion
TTITLE2=Freedom Of A Mad Paper Lantern
TTITLE3=Gloomy Reflections
TTITLE4=It Was Only Yesterday
TTITLE5=Corpse
TTITLE6=Farewell To Hypocrites
EXTD=2005 reissue
EXTT0=
EXTT1=
EXTT2=
EXTT3=
EXTT4=
EXTT5=
EXTT6=
PLAYORDER=
